<html>
<head>
<meta charset="UTF-8">
<meta name="viewport" content="width=device-width, initial-scale=1.0"/>

<style>
.comment
{
    padding-left: 20px;
    margin-top: 4px;
    margin-right: 4px;
    margin-bottom: 4px;
    border: 2px #000 solid;
}
.submission
{
    border: 4px #00f solid;
    padding-left: 20px;
}
.hidden
{
    display: none;
}
</style>
</head>
<body><div class="submission" id="t3_631d5w">
    <p class="userinfo">
        <a href="https://www.reddit.com/u/Ethan2k16">Ethan2k16</a>
        <span class="score"> | 15 points</span>
        <span class="timestamp"> | Apr 02 2017 18:39:42</span>
    </p>
    <strong>[MOVIE] The Interrogation of Michael Crowe (2002) [1.12 GB]</strong>
    <p><pre><code>Link: https://mega.nz/#F!qZJVAb6A
DKey: !vCmrAUBLJwFcX2fGI6YXYQ
</code></pre></p>
    <p class="toolbar">
        <a href="https://www.reddit.com/r/megalinks/comments/631d5w">permalink</a>
    </p>
</div>
<div class="comment" id="t1_dfqjb04">
    <p class="userinfo">
        <a
        class="toggle_hide_button"
        href="javascript:void(0)"
        onclick="toggle_collapse(this.parentElement.parentElement)">[-]
        </a>
        <a href="https://www.reddit.com/u/boltrop">boltrop</a>
        <span class="score"> | 2 points</span>
        <span class="timestamp"> | Apr 02 2017 18:40:09</span>
    </p>
    <div class="collapsible">
        <h3><a href="https://images-na.ssl-images-amazon.com/images/M/MV5BODQzODEwMzg2M15BMl5BanBnXkFtZTcwNDA1MDAzMQ@@._V1_.jpg">The Interrogation of Michael Crowe</a> (2002)</h3>
<p><strong>Genre</strong>: Drama, Thriller</p>
<p><strong>Rating</strong>:  7.1 (692 votes)</p>
<p><strong>Certification</strong>: M</p>
<p><strong>Runtime</strong>: 100 min</p>
<hr>
<blockquote>
<p><strong>Director(s)</strong>: <a href="https://www.imdb.com/name/nm0564260/">Don McBrearty</a></p>
<p><strong>Writer(s)</strong>: <a href="https://www.imdb.com/name/nm0007230/">Alan Hines</a></p>
<p><strong>Cast</strong>: <a href="https://www.imdb.com/name/nm0000639/">Ally Sheedy</a>, <a href="https://www.imdb.com/name/nm0719321/">Mark Rendall</a>, <a href="https://www.imdb.com/name/nm0099909/">John Bourgeois</a>, <a href="https://www.imdb.com/name/nm0516665/">Hannah Lochner</a></p>
<p><strong>Plot</strong>: The lives of Escondido, California residents Cheryl and Stephen Crowe change one morning when they find...</p>
</blockquote>
<hr>
<p>^This ^summary ^is ^taken ^from <a href="https://www.imdb.com/title/tt0330452/">^imdb.com</a> ^| ^For ^feedback ^or ^suggestions ^contact <a href="http://www.reddit.com/message/compose/?to=indigo6alpha">^/u/indigo6alpha</a></p>
        <p class="toolbar">
            <a href="https://www.reddit.com/r/megalinks/comments/631d5w/_/dfqjb04">permalink</a>
        </p>
        
    </div>
</div>

<div class="comment" id="t1_dfqkljq">
    <p class="userinfo">
        <a
        class="toggle_hide_button"
        href="javascript:void(0)"
        onclick="toggle_collapse(this.parentElement.parentElement)">[-]
        </a>
        <a href="https://www.reddit.com/u/dosemeele">dosemeele</a>
        <span class="score"> | 2 points</span>
        <span class="timestamp"> | Apr 02 2017 19:07:46</span>
    </p>
    <div class="collapsible">
        <p>Thank you very much for the movie! Can you send me the movie details?</p>
        <p class="toolbar">
            <a href="https://www.reddit.com/r/megalinks/comments/631d5w/_/dfqkljq">permalink</a>
        </p>
        <div class="comment" id="t1_dfql141">
    <p class="userinfo">
        <a
        class="toggle_hide_button"
        href="javascript:void(0)"
        onclick="toggle_collapse(this.parentElement.parentElement)">[-]
        </a>
        <a href="https://www.reddit.com/u/Ethan2k16">Ethan2k16</a>
        <span class="score"> | 2 points</span>
        <span class="timestamp"> | Apr 02 2017 19:17:02</span>
    </p>
    <div class="collapsible">
        <p>Sure thing!</p>
<pre><code>Duration: 01:26:47.04, start: 0.000000, bitrate: 1841 kb/s
Stream #0:0: Video: mpeg4 (Simple Profile) (XVID / 0x44495658), yuv420p, 704x544 [SAR 1:1 DAR 22:17], 1499 kb/s, 25 fps, 25 tbr, 25 tbn, 25 tbc
Stream #0:1: Audio: mp3 (U[0][0][0] / 0x0055), 48000 Hz, stereo, s16p, 160 kb/s
Stream #0:2: Audio: mp3 (U[0][0][0] / 0x0055), 48000 Hz, stereo, s16p, 160 kb/s
</code></pre>
<p>First audio track is Italian. Second audio track is English.</p>
        <p class="toolbar">
            <a href="https://www.reddit.com/r/megalinks/comments/631d5w/_/dfql141">permalink</a>
        </p>
        
    </div>
</div>
    </div>
</div>

<div class="comment" id="t1_dfqn9cb">
    <p class="userinfo">
        <a
        class="toggle_hide_button"
        href="javascript:void(0)"
        onclick="toggle_collapse(this.parentElement.parentElement)">[-]
        </a>
        <a href="https://www.reddit.com/u/dosemeele">dosemeele</a>
        <span class="score"> | 2 points</span>
        <span class="timestamp"> | Apr 02 2017 20:06:23</span>
    </p>
    <div class="collapsible">
        <p>Thank you very much for the information!</p>
        <p class="toolbar">
            <a href="https://www.reddit.com/r/megalinks/comments/631d5w/_/dfqn9cb">permalink</a>
        </p>
        
    </div>
</div>
</body>

<script>
function toggle_collapse(comment_div)
{
    var button = comment_div.getElementsByClassName("toggle_hide_button")[0];
    var collapsible = comment_div.getElementsByClassName("collapsible")[0];
    if (collapsible.classList.contains("hidden"))
    {
        collapsible.classList.remove("hidden");
        button.innerText = "[-]";
    }
    else
    {
        collapsible.classList.add("hidden");
        button.innerText = "[+]";
    }
}
</script>
</html>
